<svg xmlns="http://www.w3.org/2000/svg" viewBox="0 0 64 64">
  <defs>
    <linearGradient id="bg" x1="32" y1="4" x2="32" y2="60" gradientUnits="userSpaceOnUse">
      <stop stop-color="#FFC24D"/>
      <stop offset="1" stop-color="#E1472B"/>
    </linearGradient>
  </defs>
  <circle cx="32" cy="32" r="30" fill="#150F0A"/>
  <circle cx="32" cy="32" r="26" fill="url(#bg)"/>
  <g fill="#150F0A">
    <ellipse cx="21" cy="24" rx="4.6" ry="6"/>
    <ellipse cx="34" cy="19" rx="4.6" ry="6.2"/>
    <ellipse cx="46" cy="25" rx="4.4" ry="5.8"/>
    <ellipse cx="41" cy="38" rx="4.6" ry="6" transform="rotate(18 41 38)"/>
    <path d="M32 33c6 0 11 4.4 11 9.3 0 3.6-2.7 6.2-6.4 6.2-2 0-3-1-5.1-1s-3 1-5 1c-3.7 0-6.5-2.6-6.5-6.2 0-4.9 5.1-9.3 12-9.3z"/>
  </g>
</svg>
